<svg width="345" height="345" viewBox="0 0 345 345" fill="none" xmlns="http://www.w3.org/2000/svg">
<circle cx="172.5" cy="172.5" r="172.5" fill="#B9B9B9"/>
<circle cx="172.5" cy="172.5" r="109.02" fill="white"/>
<path d="M172.348 217.604C236.518 217.604 254.044 298.472 254.044 298.472H91.2039C91.2039 298.472 105.142 217.604 172.348 217.604Z" fill="#B9B9B9"/>
<path d="M165.034 220.226L144.196 217.604L136.33 225.056L173.452 247.274L209.056 225.47L201.88 218.984L179.662 222.02" fill="#6F16B5"/>
<path d="M186.7 197.594L192.082 222.848C192.082 222.848 186.148 230.3 172.762 230.576C159.376 230.99 152.752 222.02 152.752 222.02L155.788 195.938L186.7 197.594Z" fill="#FFB8BD"/>
<path d="M155.374 198.974L154.546 206.288C154.546 206.288 175.798 216.224 189.598 211.256C188.494 205.736 186.7 197.456 186.7 197.456L155.374 198.974Z" fill="#FF97AA"/>
<path d="M117.424 138.667C119.218 149.983 120.46 161.437 113.284 163.231C106.108 165.025 93.2737 156.331 91.4797 145.015C89.6857 133.561 94.1017 122.935 101.278 121.279C108.316 119.485 115.63 127.213 117.424 138.667Z" fill="#FFB8BD"/>
<path d="M114.112 138.805C115.216 145.843 116.044 152.881 111.628 153.985C107.212 155.089 99.2078 149.707 98.1038 142.669C96.9998 135.631 99.7598 129.007 104.176 127.903C108.592 126.937 113.008 131.767 114.112 138.805Z" fill="#FF97AA"/>
<path d="M227.686 138.667C225.892 149.983 224.65 161.437 231.826 163.231C239.002 165.025 251.836 156.331 253.63 145.015C255.424 133.699 251.008 123.073 243.832 121.279C236.656 119.485 229.48 127.213 227.686 138.667Z" fill="#FFB8BD"/>
<path d="M232.378 138.805C231.274 145.843 230.446 152.881 234.862 153.985C239.278 155.089 247.282 149.707 248.386 142.669C249.49 135.631 246.73 129.007 242.314 127.903C238.036 126.937 233.482 131.767 232.378 138.805Z" fill="#FF97AA"/>
<path d="M240.106 147.776C233.62 184.07 210.16 204.356 173.314 204.356C136.468 204.356 111.904 184.208 106.522 147.776C100.45 106.928 118.252 69.2535 173.314 69.2535C228.376 69.2535 247.834 104.72 240.106 147.776Z" fill="#FFB8BD"/>
<path d="M200.224 136.597C202.891 136.597 205.054 133.632 205.054 129.973C205.054 126.315 202.891 123.349 200.224 123.349C197.556 123.349 195.394 126.315 195.394 129.973C195.394 133.632 197.556 136.597 200.224 136.597Z" fill="#3F3F3F"/>
<path d="M167.932 123.488C167.242 125.282 167.932 137.564 167.242 146.258C160.204 142.532 161.032 151.088 162.274 152.882C164.758 156.194 179.662 157.022 182.146 151.64C183.94 147.914 182.284 143.498 177.178 145.706C176.488 137.15 176.764 123.902 176.212 123.35C175.522 122.798 168.484 122.108 167.932 123.488Z" fill="url(#paint0_linear_2_239)"/>
<path d="M220.234 155.503C218.578 157.297 216.232 158.401 213.886 158.953C212.644 159.229 211.54 159.505 210.298 159.367C206.986 159.091 204.226 155.917 204.088 152.605C203.674 145.981 210.988 141.289 217.06 142.117C222.994 142.945 223.822 151.501 220.234 155.503Z" fill="#FF97AA"/>
<path d="M126.67 155.503C128.326 157.297 130.672 158.401 133.018 158.953C134.26 159.229 135.364 159.505 136.606 159.367C139.918 159.091 142.678 155.917 142.816 152.605C143.23 145.981 135.916 141.289 129.844 142.117C123.91 142.945 123.082 151.501 126.67 155.503Z" fill="#FF97AA"/>
<path d="M105.418 136.735C105.418 136.735 102.796 190.831 130.12 213.325C157.444 235.819 196.36 231.541 217.06 215.809C240.52 197.869 241.624 138.529 241.624 138.529C241.624 138.529 235 170.407 206.986 166.957C193.876 165.301 182.422 158.401 173.452 157.849C163.378 157.297 153.166 163.231 139.78 166.681C114.388 173.167 105.418 136.735 105.418 136.735Z" fill="#3F3F3F"/>
<path d="M160.204 166.819C171.382 177.307 179.662 169.303 179.662 169.303C179.662 169.303 166.966 168.751 160.204 166.819Z" fill="white"/>
<path d="M153.58 132.044C153.442 132.044 153.166 131.906 153.028 131.768C148.612 126.662 141.712 130.388 141.712 130.388C141.436 130.526 141.022 130.388 140.746 130.112C140.608 129.836 140.746 129.422 141.022 129.146C141.16 129.146 149.026 124.868 154.132 130.802C154.408 131.078 154.408 131.492 154.132 131.768C153.856 132.044 153.718 132.044 153.58 132.044Z" fill="#3F3F3F"/>
<path d="M211.126 113.827C208.09 119.071 189.598 115.759 189.184 108.445C188.908 101.131 215.266 106.513 211.126 113.827Z" fill="#3F3F3F"/>
<path d="M132.88 116.725C134.26 122.521 153.304 124.039 155.512 117.139C157.72 110.101 131.086 109.135 132.88 116.725Z" fill="#3F3F3F"/>
<path d="M167.518 236.647V273.631H179.662V236.647" fill="#6F16B5"/>
<path d="M116.044 94.3695C111.904 92.8515 111.628 58.9035 152.062 55.3155C192.496 51.5895 221.2 66.2175 231.136 79.7414C241.21 93.2654 239.14 108.307 211.54 103.201C183.94 98.0954 116.044 94.3695 116.044 94.3695Z" fill="#6F16B5"/>
<path d="M200.224 64.9755C200.224 64.9755 202.294 56.4195 200.362 47.1735C208.918 45.9315 211.54 49.6575 211.54 49.6575C211.54 49.6575 208.918 63.0435 203.812 66.7695" fill="#6F16B5"/>
<defs>
<linearGradient id="paint0_linear_2_239" x1="172.207" y1="152.291" x2="172.207" y2="128.707" gradientUnits="userSpaceOnUse">
<stop stop-color="#FF8BA6"/>
<stop offset="1" stop-color="#FFB8BD"/>
</linearGradient>
</defs>
</svg>
