<svg width="385" height="300" viewBox="0 0 385 300" fill="none" xmlns="http://www.w3.org/2000/svg">
<rect width="385" height="300" fill="#27073F"/>
<circle cx="199.5" cy="150.5" r="87.5" fill="#B9B9B9"/>
<circle cx="199.5" cy="150.5" r="55.3" fill="white"/>
<path d="M199.423 173.379C231.973 173.379 240.863 214.399 240.863 214.399H158.263C158.263 214.399 165.333 173.379 199.423 173.379Z" fill="#B9B9B9"/>
<path d="M195.713 174.709L185.143 173.379L181.153 177.159L199.983 188.429L218.043 177.369L214.403 174.079L203.133 175.619" fill="#6F16B5"/>
<path d="M206.703 163.229L209.433 176.039C209.433 176.039 206.423 179.819 199.633 179.959C192.843 180.169 189.483 175.619 189.483 175.619L191.023 162.389L206.703 163.229Z" fill="#FFB8BD"/>
<path d="M190.813 163.929L190.393 167.639C190.393 167.639 201.173 172.679 208.173 170.159C207.613 167.359 206.703 163.159 206.703 163.159L190.813 163.929Z" fill="#FF97AA"/>
<path d="M171.563 133.338C172.473 139.078 173.103 144.888 169.463 145.798C165.823 146.708 159.313 142.298 158.403 136.558C157.493 130.748 159.733 125.358 163.373 124.518C166.943 123.608 170.653 127.528 171.563 133.338Z" fill="#FFB8BD"/>
<path d="M169.883 133.408C170.443 136.978 170.863 140.548 168.623 141.108C166.383 141.668 162.323 138.938 161.763 135.368C161.203 131.798 162.603 128.438 164.843 127.878C167.083 127.388 169.323 129.838 169.883 133.408Z" fill="#FF97AA"/>
<path d="M227.493 133.338C226.583 139.078 225.953 144.888 229.593 145.798C233.233 146.708 239.743 142.298 240.653 136.558C241.563 130.818 239.323 125.428 235.683 124.518C232.043 123.608 228.403 127.528 227.493 133.338Z" fill="#FFB8BD"/>
<path d="M229.873 133.408C229.313 136.978 228.893 140.548 231.133 141.108C233.373 141.668 237.433 138.938 237.993 135.368C238.553 131.798 237.153 128.438 234.913 127.878C232.743 127.388 230.433 129.838 229.873 133.408Z" fill="#FF97AA"/>
<path d="M233.793 137.959C230.503 156.369 218.603 166.658 199.913 166.658C181.223 166.658 168.763 156.439 166.033 137.959C162.953 117.239 171.983 98.1285 199.913 98.1285C227.843 98.1285 237.713 116.119 233.793 137.959Z" fill="#FFB8BD"/>
<path d="M213.563 132.288C214.916 132.288 216.013 130.784 216.013 128.928C216.013 127.073 214.916 125.568 213.563 125.568C212.21 125.568 211.113 127.073 211.113 128.928C211.113 130.784 212.21 132.288 213.563 132.288Z" fill="#3F3F3F"/>
<path d="M197.183 125.639C196.833 126.549 197.183 132.779 196.833 137.189C193.263 135.299 193.683 139.639 194.313 140.549C195.573 142.229 203.133 142.649 204.393 139.919C205.303 138.029 204.463 135.789 201.873 136.909C201.523 132.569 201.663 125.849 201.383 125.569C201.033 125.289 197.463 124.939 197.183 125.639Z" fill="url(#paint0_linear_3_312)"/>
<path d="M223.713 141.878C222.873 142.788 221.683 143.348 220.493 143.628C219.863 143.768 219.303 143.908 218.673 143.838C216.993 143.698 215.593 142.088 215.523 140.408C215.313 137.048 219.023 134.668 222.103 135.088C225.113 135.508 225.533 139.848 223.713 141.878Z" fill="#FF97AA"/>
<path d="M176.253 141.878C177.093 142.788 178.283 143.348 179.473 143.628C180.103 143.768 180.663 143.908 181.293 143.838C182.973 143.698 184.373 142.088 184.443 140.408C184.653 137.048 180.943 134.668 177.863 135.088C174.853 135.508 174.433 139.848 176.253 141.878Z" fill="#FF97AA"/>
<path d="M165.473 132.358C165.473 132.358 164.143 159.798 178.003 171.208C191.863 182.618 211.603 180.448 222.103 172.468C234.003 163.368 234.563 133.268 234.563 133.268C234.563 133.268 231.203 149.438 216.993 147.688C210.343 146.848 204.533 143.348 199.983 143.068C194.873 142.788 189.693 145.798 182.903 147.548C170.023 150.838 165.473 132.358 165.473 132.358Z" fill="#3F3F3F"/>
<path d="M193.263 147.619C198.933 152.939 203.133 148.879 203.133 148.879C203.133 148.879 196.693 148.599 193.263 147.619Z" fill="white"/>
<path d="M189.903 129.979C189.833 129.979 189.693 129.909 189.623 129.839C187.383 127.249 183.883 129.139 183.883 129.139C183.743 129.209 183.533 129.139 183.393 128.999C183.323 128.859 183.393 128.649 183.533 128.509C183.603 128.509 187.593 126.339 190.183 129.349C190.323 129.489 190.323 129.699 190.183 129.839C190.043 129.979 189.973 129.979 189.903 129.979Z" fill="#3F3F3F"/>
<path d="M219.093 120.739C217.553 123.399 208.173 121.719 207.963 118.009C207.823 114.299 221.193 117.029 219.093 120.739Z" fill="#3F3F3F"/>
<path d="M179.403 122.209C180.103 125.149 189.763 125.919 190.883 122.419C192.003 118.849 178.493 118.359 179.403 122.209Z" fill="#3F3F3F"/>
<path d="M196.973 183.039V201.799H203.133V183.039" fill="#6F16B5"/>
<path d="M170.863 110.869C168.763 110.099 168.623 92.8785 189.133 91.0585C209.643 89.1685 224.203 96.5885 229.243 103.449C234.353 110.309 233.303 117.939 219.303 115.349C205.303 112.759 170.863 110.869 170.863 110.869Z" fill="#6F16B5"/>
<path d="M213.563 95.9586C213.563 95.9586 214.613 91.6186 213.633 86.9286C217.973 86.2986 219.303 88.1886 219.303 88.1886C219.303 88.1886 217.973 94.9786 215.383 96.8686" fill="#6F16B5"/>
<defs>
<linearGradient id="paint0_linear_3_312" x1="199.352" y1="140.249" x2="199.352" y2="128.286" gradientUnits="userSpaceOnUse">
<stop stop-color="#FF8BA6"/>
<stop offset="1" stop-color="#FFB8BD"/>
</linearGradient>
</defs>
</svg>
