<svg width="127" height="50" viewBox="0 0 127 50" fill="none" xmlns="http://www.w3.org/2000/svg">
<path d="M65.5677 18.3136L71.6098 17.9215C71.7477 18.9132 72.0004 19.6511 72.4139 20.1816C73.0801 21.0118 73.9991 21.4269 75.2167 21.4269C76.1127 21.4269 76.8249 21.2193 77.3073 20.7812C77.7668 20.4352 78.0425 19.8818 78.0425 19.3052C78.0425 18.7518 77.7898 18.2213 77.3533 17.8754C76.8938 17.4603 75.814 17.0452 74.114 16.6762C71.3341 16.0536 69.3354 15.2234 68.1637 14.1625C66.992 13.1709 66.3258 11.718 66.3717 10.1729C66.3717 9.11208 66.6934 8.05125 67.2907 7.17492C67.9799 6.18328 68.9219 5.39919 70.0476 4.96102C71.2652 4.43061 72.9653 4.15387 75.1018 4.15387C77.7209 4.15387 79.7196 4.63816 81.098 5.6298C82.4765 6.59838 83.3036 8.16656 83.5563 10.3113L77.583 10.6572C77.4222 9.73473 77.1006 9.06595 76.5722 8.62779C76.0438 8.18962 75.3546 7.98207 74.4586 7.98207C73.7234 7.98207 73.172 8.1435 72.8045 8.44329C72.4598 8.72003 72.2301 9.13514 72.2531 9.59637C72.2531 9.94229 72.4369 10.2651 72.7126 10.4727C73.0112 10.7494 73.7234 11.0031 74.8491 11.2337C77.629 11.8333 79.6047 12.4329 80.8224 13.0556C82.04 13.6782 82.913 14.4393 83.4414 15.3387C83.9928 16.2611 84.2685 17.3219 84.2455 18.4058C84.2455 19.6973 83.8779 20.9887 83.1427 22.0726C82.3846 23.2026 81.3278 24.0789 80.0872 24.6094C78.7777 25.1859 77.1236 25.4857 75.1478 25.4857C71.6558 25.4857 69.2435 24.8169 67.888 23.4563C66.5326 22.0957 65.7285 20.3891 65.5677 18.3136ZM1.44736 25.1398V4.52285H12.0384C13.9911 4.52285 15.5074 4.68428 16.5412 5.0302C17.5521 5.35306 18.4481 6.02185 19.0454 6.92124C19.7117 7.91288 20.0333 9.06595 20.0103 10.2651C20.0792 12.2946 19.0454 14.2317 17.2764 15.2464C16.5872 15.6385 15.8291 15.9152 15.0479 16.0536C15.6223 16.215 16.1966 16.4917 16.7021 16.8146C17.0926 17.1375 17.4143 17.5064 17.7129 17.8985C18.0575 18.2905 18.3562 18.7287 18.6089 19.1899L21.6874 25.1628H14.4736L11.0734 18.8209C10.6369 18.0138 10.2694 17.4834 9.92475 17.2297C9.46527 16.9068 8.91389 16.7454 8.36252 16.7454H7.81114V25.1167H1.44736V25.1398ZM7.81114 12.8711H10.4991C11.0734 12.825 11.6248 12.7327 12.1762 12.5944C12.5897 12.5252 12.9573 12.2946 13.21 11.9486C13.8303 11.1184 13.7384 9.94229 12.9803 9.22738C12.5668 8.88146 11.7627 8.69697 10.614 8.69697H7.81114V12.8711ZM0 42.8048L6.04215 42.4128C6.17999 43.4044 6.43271 44.1424 6.84624 44.6728C7.48951 45.503 8.43144 45.9412 9.64906 45.9412C10.545 45.9412 11.2572 45.7336 11.7397 45.2955C12.1992 44.9265 12.4749 44.3961 12.4749 43.8195C12.4749 43.266 12.2221 42.7356 11.7856 42.3897C11.3262 41.9746 10.2464 41.5595 8.52334 41.1905C5.74349 40.5679 3.74475 39.7376 2.57308 38.6768C1.40141 37.6852 0.735166 36.2323 0.781114 34.6872C0.781114 33.6264 1.10275 32.5655 1.70007 31.6892C2.38929 30.6976 3.33122 29.9135 4.45695 29.4753C5.67457 28.9449 7.37464 28.6682 9.51122 28.6682C12.1302 28.6682 14.129 29.1525 15.5074 30.1441C16.8859 31.1357 17.6899 32.6809 17.9427 34.8256L11.9694 35.1715C11.8086 34.249 11.487 33.5803 10.9586 33.1421C10.4531 32.7039 9.74096 32.4964 8.84497 32.5194C8.1098 32.5194 7.55843 32.6809 7.19085 33.0037C6.82326 33.2805 6.6165 33.6956 6.63947 34.1568C6.63947 34.5027 6.82326 34.8256 7.09895 35.0331C7.39761 35.3099 8.10981 35.5635 9.23553 35.7941C12.0154 36.3937 13.9911 36.9933 15.2088 37.616C16.4264 38.2387 17.2994 38.9997 17.8278 39.8991C18.3792 40.8215 18.6548 41.8824 18.6548 42.9432C18.6548 44.2346 18.2643 45.503 17.5521 46.5869C16.794 47.7169 15.7372 48.5932 14.4966 49.1237C13.187 49.7002 11.5329 50 9.55716 50C6.06512 50 3.65286 49.3312 2.2974 47.9706C0.941932 46.5869 0.183792 44.8803 0 42.8048H0Z" fill="white"/>
<path d="M30.5553 41.1905L36.115 42.874C35.8164 44.2807 35.1961 45.6183 34.346 46.7944C33.5649 47.8322 32.5311 48.6393 31.3594 49.1698C30.1648 49.7002 28.6485 49.9769 26.8106 49.9769C24.5821 49.9769 22.7442 49.654 21.3428 49.0083C19.9184 48.3626 18.7008 47.2095 17.6669 45.5722C16.6331 43.9348 16.1277 41.8362 16.1277 39.2764C16.1277 35.8633 17.0237 33.2343 18.8386 31.4125C20.6536 29.5906 23.2037 28.6682 26.5119 28.6682C29.108 28.6682 31.1297 29.1986 32.623 30.2363C34.0933 31.2972 35.1961 32.9115 35.9312 35.0792L30.3256 36.3245C30.1877 35.8403 29.981 35.356 29.7053 34.9409C29.3607 34.4566 28.9242 34.0876 28.3958 33.8108C27.8674 33.5341 27.2701 33.4188 26.6727 33.4188C25.2254 33.4188 24.1226 33.9953 23.3645 35.1715C22.7901 36.0247 22.4915 37.3854 22.4915 39.2303C22.4915 41.5134 22.8361 43.0815 23.5253 43.9348C24.2145 44.7881 25.1794 45.2032 26.443 45.2032C27.6606 45.2032 28.5796 44.8573 29.1999 44.1885C29.8202 43.4736 30.2796 42.4819 30.5553 41.1905ZM43.5356 29.0141H49.8764V36.2323H56.8146V29.0141H63.2013V49.631H56.8146V41.2828H49.8764V49.631H43.5356V29.0141V29.0141Z" fill="white"/>
<path d="M62.3284 39.3225C62.3284 35.9556 63.2703 33.3265 65.1312 31.4586C66.9921 29.5906 69.6111 28.6451 72.9423 28.6451C76.3655 28.6451 78.9845 29.5675 80.8454 31.4125C82.7063 33.2574 83.6252 35.8402 83.6252 39.1611C83.6252 41.5825 83.2117 43.5428 82.4076 45.0879C81.6265 46.6099 80.4089 47.8552 78.9156 48.6855C77.3763 49.5387 75.4695 49.9769 73.1951 49.9769C70.8747 49.9769 68.9678 49.6079 67.4516 48.8699C65.8893 48.0859 64.6028 46.8636 63.7528 45.3646C62.8108 43.7503 62.3284 41.744 62.3284 39.3225ZM68.6692 39.3456C68.6692 41.4211 69.0597 42.9201 69.8179 43.8426C70.576 44.742 71.6328 45.2032 72.9653 45.2032C74.3208 45.2032 75.3776 44.765 76.1357 43.8656C76.8939 42.9662 77.2614 41.375 77.2614 39.0688C77.2614 37.1317 76.8709 35.7019 76.0898 34.8255C75.3087 33.9261 74.2519 33.488 72.9194 33.488C71.7477 33.4419 70.622 33.9492 69.8409 34.8486C69.0597 35.748 68.6692 37.247 68.6692 39.3456V39.3456ZM90.1269 39.3225C90.1269 35.9556 91.0688 33.3265 92.9297 31.4586C94.7906 29.5906 97.4096 28.6451 100.741 28.6451C104.164 28.6451 106.806 29.5675 108.644 31.4125C110.482 33.2574 111.424 35.8402 111.424 39.1611C111.424 41.5825 111.01 43.5428 110.206 45.0879C109.425 46.6099 108.207 47.8552 106.714 48.6855C105.175 49.5387 103.268 49.9769 100.994 49.9769C98.6732 49.9769 96.7663 49.6079 95.25 48.8699C93.6878 48.0859 92.4013 46.8636 91.5512 45.3646C90.6093 43.7503 90.1269 41.744 90.1269 39.3225V39.3225ZM96.4677 39.3456C96.4677 41.4211 96.8582 42.9201 97.6164 43.8426C98.3745 44.742 99.4313 45.2032 100.764 45.2032C102.119 45.2032 103.176 44.765 103.934 43.8656C104.692 42.9662 105.06 41.375 105.06 39.0688C105.06 37.1317 104.669 35.7019 103.888 34.8255C103.107 33.9261 102.05 33.488 100.718 33.488C99.5462 33.4419 98.3975 33.9492 97.6393 34.8486C96.8582 35.748 96.4677 37.247 96.4677 39.3456V39.3456Z" fill="white"/>
<path d="M110.757 29.014H117.098V44.5574H127V49.631H110.734V29.014H110.757Z" fill="white"/>
<path d="M103.768 27.8243C110.152 22.9952 112.121 14.8092 108.165 9.54026C104.21 4.27133 95.8281 3.91476 89.4442 8.74382C83.0604 13.5729 81.0918 21.7589 85.0473 27.0278C89.0028 32.2968 97.3845 32.6533 103.768 27.8243Z" fill="white"/>
<path d="M103.768 27.8243C110.152 22.9952 112.121 14.8092 108.165 9.54026C104.21 4.27133 95.8281 3.91476 89.4442 8.74382C83.0604 13.5729 81.0918 21.7589 85.0473 27.0278C89.0028 32.2968 97.3845 32.6533 103.768 27.8243Z" stroke="white" stroke-miterlimit="10"/>
<path d="M90.1498 16.7684L92.4472 15.1541L95.273 19.1898C95.7554 19.8356 96.123 20.5274 96.3987 21.2884C96.5595 21.865 96.5136 22.4876 96.2838 23.0411C95.9852 23.7329 95.5027 24.3095 94.8594 24.7246C94.1013 25.255 93.458 25.5548 92.9067 25.647C92.3783 25.7393 91.8269 25.647 91.3215 25.4164C90.7701 25.1397 90.2876 24.7476 89.92 24.2403L91.8958 22.3954C92.0566 22.6491 92.2634 22.8797 92.4931 23.0642C92.6539 23.1795 92.8377 23.2487 93.0445 23.2487C93.2053 23.2487 93.3661 23.1795 93.481 23.0872C93.7107 22.9489 93.8716 22.6721 93.8486 22.3954C93.7797 22.0033 93.6188 21.6113 93.3661 21.3115L90.1498 16.7684V16.7684ZM97.042 19.3282L99.1326 17.6678C99.3623 17.9445 99.661 18.1521 99.9826 18.2674C100.442 18.4058 100.925 18.3135 101.315 18.0137C101.591 17.8292 101.821 17.5755 101.912 17.2527C102.05 16.8376 101.821 16.3763 101.407 16.238C101.338 16.2149 101.269 16.1919 101.2 16.1919C100.925 16.1688 100.442 16.2841 99.7299 16.5839C98.5583 17.0682 97.6393 17.2527 96.9501 17.1835C96.2838 17.1143 95.6635 16.7684 95.2959 16.1919C95.0203 15.7998 94.8824 15.3386 94.8594 14.8774C94.8594 14.3469 94.9973 13.8165 95.2959 13.3784C95.7325 12.7557 96.2609 12.2253 96.9041 11.8102C97.869 11.1414 98.7191 10.8185 99.4542 10.8185C100.189 10.8185 100.879 11.1645 101.522 11.8794L99.4542 13.5167C99.0407 12.9863 98.2596 12.871 97.7312 13.2861L97.6623 13.3553C97.4325 13.4937 97.2717 13.7012 97.1798 13.9549C97.1109 14.1394 97.1568 14.3469 97.2717 14.5084C97.3636 14.6237 97.5015 14.7159 97.6623 14.7159C97.8461 14.739 98.1677 14.6467 98.6272 14.4392C99.7759 13.9549 100.649 13.6782 101.246 13.5859C101.752 13.4937 102.28 13.5398 102.762 13.7473C103.199 13.9318 103.567 14.2547 103.819 14.6467C104.141 15.108 104.325 15.6614 104.348 16.238C104.371 16.8376 104.21 17.4141 103.888 17.9215C103.475 18.5441 102.946 19.0745 102.326 19.4896C101.062 20.366 100.029 20.735 99.2015 20.5966C98.3055 20.4582 97.5704 19.997 97.042 19.3282V19.3282Z" fill="#27073F"/>
</svg>
